<svg width="94" height="24" viewBox="0 0 94 24" fill="none" xmlns="http://www.w3.org/2000/svg">
<path d="M10 13.2327C9.20755 13.6352 8.26415 13.8365 7.1195 13.8365C5.86164 13.8365 4.3522 13.3962 4.3522 11.2956V0L0 2.25157V11.2579C0 15.3962 2.79245 18.0629 7.1195 18.0629C9.52201 18.0629 11.6352 17.434 13.4088 16.1887C14.0126 15.7987 14.3396 15.1572 14.3396 14.4025V0L10 2.25157V13.2327Z" fill="white"/>
<path d="M24.7296 0.666626C21.7358 0.666626 19.434 1.59744 18.3648 2.40248C17.761 2.85531 17.4465 3.48424 17.4465 4.23895V16.4779L21.7987 18.7295V5.43392C22.5912 5.08172 23.5597 4.90562 24.6792 4.90562C25.7107 4.90562 27.4465 5.25782 27.4465 7.58487V16.4779L31.7987 18.7295V7.47166C31.7987 3.14461 29.2201 0.666626 24.7296 0.666626Z" fill="white"/>
<path d="M58.4528 12.088C57.9874 13.2075 57.0188 13.8616 55.7735 13.8616C53.9874 13.8616 52.8805 12.8553 52.7169 11.1195C52.6415 9.76097 52.6289 8.54084 52.7169 7.53455C52.8679 5.83644 53.9874 4.86788 55.7735 4.86788C56.9937 4.86788 57.9245 5.49682 58.3899 6.64147L58.7044 7.40877L62.5408 6.70436V5.84902C62.5408 4.72952 61.8993 3.57229 60.6289 2.41505C59.3962 1.24524 57.7484 0.666626 55.7358 0.666626C53.6981 0.666626 51.9748 1.28298 50.6037 2.49053C49.2201 3.73581 48.4654 5.34587 48.3647 7.23267C48.2767 8.61631 48.2767 10.0125 48.3647 11.371C48.4654 13.2452 49.2075 14.8679 50.5912 16.1761C51.9497 17.4339 53.6729 18.0629 55.7358 18.0629C57.761 18.0629 59.4088 17.4842 60.6415 16.3522C61.9622 15.1698 62.6037 14.0377 62.6037 12.8679V12.0125L58.7673 11.3207L58.4528 12.088Z" fill="white"/>
<path d="M76.5786 2.49053C75.2453 1.28298 73.5346 0.666626 71.4969 0.666626C69.4969 0.666626 67.7862 1.28298 66.3899 2.51568C65.0063 3.76097 64.2516 5.35845 64.1509 7.23267C64.0629 8.64147 64.0629 9.99996 64.1509 11.371C64.2516 13.2956 65.0063 14.9182 66.4151 16.1886C67.7987 17.4339 69.4969 18.0629 71.4969 18.0629C73.522 18.0629 75.2327 17.4339 76.5786 16.1886C77.9874 14.9182 78.7421 13.2956 78.8428 11.3836C78.9308 9.99996 78.9308 8.64147 78.8428 7.24524C78.7421 5.32071 77.9748 3.72323 76.5786 2.49053ZM68.5031 7.53455C68.6163 5.8616 69.7358 4.86788 71.4969 4.86788C73.2704 4.86788 74.3899 5.8616 74.4906 7.53455C74.566 8.72952 74.566 9.93707 74.4906 11.0817C74.3396 12.8176 73.2201 13.8616 71.4843 13.8616C69.761 13.8616 68.6415 12.8301 68.4906 11.1069C68.4151 9.93707 68.4151 8.72952 68.5031 7.53455Z" fill="white"/>
<path d="M88.805 7.52197L87.8868 7.29556L86.4654 6.95594C85.0314 6.55342 85.0314 6.2138 85.0314 5.99996C85.0314 5.55971 85.0314 4.81757 86.9811 4.81757C87.6729 4.81757 88.4025 5.04399 89.2075 5.52197L89.9748 5.9748L92.566 2.7421L91.7484 2.10059C90.5283 1.14461 88.9559 0.666626 87.0691 0.666626C83.283 0.666626 80.7421 2.84273 80.7421 6.08801C80.7421 7.81128 81.5597 10.0754 85.4465 11.0943C85.6226 11.1446 85.8868 11.2075 86.3396 11.3081C86.6541 11.3836 87.0566 11.4717 87.5471 11.5849C88.5283 11.8239 89.0314 12.1761 89.0314 12.6289C89.0314 13.61 88 13.9496 87.0314 13.9496C85.4339 13.9496 84.7673 13.6352 83.7735 12.8805L82.9685 12.2641L80.3773 15.61L81.1446 16.239C82.6163 17.4465 84.5283 18.0629 86.8427 18.0629C90.7421 18.0629 93.3585 15.8239 93.3585 12.5031C93.3459 10.7673 92.566 8.49053 88.805 7.52197Z" fill="white"/>
<path d="M44.8931 0.201172L40.7925 10.4527L37.912 3.81124L36.3522 0.21375L32.5409 2.45274L38.4403 15.8867C37.8491 17.4213 36.9686 18.5156 35.7736 19.22L33.8742 19.9119L35.3585 23.9999L37.4969 23.22L38.3522 22.7546L38.4025 22.7295C39.9497 21.7987 41.6604 19.4968 42.7547 16.8553L48.7044 2.44017L44.8931 0.201172Z" fill="white"/>
</svg>
